<?xml version="1.0" encoding="UTF-8"?>
<svg width="5942px" height="5942px" viewBox="0 0 5942 5942" version="1.1" xmlns="http://www.w3.org/2000/svg" xmlns:xlink="http://www.w3.org/1999/xlink">
    <!-- Generator: Sketch 47 (45396) - http://www.bohemiancoding.com/sketch -->
    <title>aquarium</title>
    <desc>Created with Sketch.</desc>
    <defs></defs>
    <g id="Page-1" stroke="none" stroke-width="1" fill="none" fill-rule="evenodd">
        <g id="aquarium" fill="#00BCD4">
            <g id="_922622848" transform="translate(364.000000, 364.000000)">
                <path d="M4324,3869 C4274,3852 4224,3848 4182,3856 C4203,3819 4216,3771 4216,3718 C4216,3605 4159,3513 4088,3513 C4017,3513 3960,3605 3960,3718 C3960,3785 3980,3845 4011,3882 C4007,3977 3946,4057 3861,4088 C3875,4055 3882,4016 3882,3974 C3882,3861 3825,3769 3754,3769 C3683,3769 3626,3861 3626,3974 C3626,4023 3637,4067 3654,4102 L3547,4102 C3542,4058 3525,4018 3499,3985 C3526,3914 3544,3841 3555,3768 C3578,3766 3604,3759 3628,3748 C3706,3713 3751,3645 3729,3596 C3708,3551 3637,3538 3565,3565 C3563,3530 3560,3495 3555,3460 C3599,3467 3654,3459 3708,3435 C3811,3388 3871,3298 3842,3233 C3813,3168 3705,3154 3602,3201 C3576,3213 3553,3227 3533,3243 C3529,3217 3521,3190 3510,3163 C3464,3059 3375,2998 3310,3027 C3245,3056 3230,3163 3275,3267 C3302,3327 3343,3373 3386,3395 C3429,3562 3422,3737 3367,3901 C3351,3898 3335,3896 3319,3896 L3191,3896 C3079,3896 2985,3815 2964,3709 C3011,3719 3073,3710 3133,3680 C3234,3628 3290,3535 3258,3472 C3226,3409 3118,3399 3017,3451 C3009,3455 3002,3459 2995,3464 C3006,3434 3013,3398 3013,3360 C3013,3247 2956,3155 2885,3155 C2814,3155 2757,3247 2757,3360 C2757,3398 2763,3433 2775,3464 C2768,3460 2760,3455 2753,3451 C2652,3399 2544,3409 2512,3472 C2480,3535 2536,3628 2637,3680 C2699,3712 2764,3720 2812,3708 C2831,3881 2965,4019 3135,4046 C3113,4090 3111,4134 3136,4160 C3172,4199 3253,4184 3315,4125 C3336,4105 3352,4084 3363,4062 C3385,4076 3400,4100 3400,4128 L3400,4304 C3243,4291 3094,4237 2966,4148 C2952,4102 2915,4052 2861,4015 C2768,3950 2659,3945 2619,4003 C2579,4061 2621,4161 2714,4226 C2753,4253 2795,4270 2834,4276 C2737,4333 2686,4428 2722,4489 C2757,4550 2866,4554 2964,4498 C3017,4467 3057,4425 3076,4383 C3164,4419 3258,4444 3354,4455 L3323,4591 L3631,4591 L3554,4257 L3724,4257 C3729,4303 3753,4356 3794,4402 C3870,4487 3974,4517 4027,4470 C4080,4423 4061,4316 3986,4231 C3980,4224 3974,4218 3967,4212 C4038,4174 4096,4114 4131,4042 C4159,4071 4199,4097 4246,4113 C4353,4150 4459,4125 4482,4058 C4505,3991 4437,3907 4329,3870 L4324,3869 Z" id="Shape" fill-rule="nonzero"></path>
                <path d="M1506,2925 C1504,2918 1500,2913 1495,2909 C1499,2903 1500,2896 1499,2889 C1496,2877 1486,2869 1473,2869 C1472,2869 1470,2869 1469,2869 C1446,2873 1424,2874 1405,2874 L1405,2874 C1287,2874 1256,2808 1210,2707 C1201,2687 1191,2665 1179,2643 C1161,2609 1132,2576 1091,2547 C1054,2520 1008,2497 955,2476 C856,2439 738,2417 633,2417 C576,2417 527,2423 486,2435 C441,2448 409,2467 390,2492 C316,2590 435,2656 442,2776 C378,2721 304,2689 259,2701 C257,2702 255,2703 254,2705 C253,2707 253,2709 255,2711 C330,2826 330,2976 255,3092 C254,3093 254,3094 254,3096 L254,3096 C254,3097 254,3098 255,3098 C259,3103 270,3103 275,3103 C323,3103 412,3068 444,3022 C456,3212 114,3421 781,3317 C739,3381 654,3427 667,3457 C684,3494 970,3461 1039,3271 C1258,3203 1270,2958 1482,2958 C1505,2958 1509,2940 1510,2929 L1510,2928 C1510,2925 1510,2923 1509,2922 L1506,2925 Z M1166,2897 C1148,2897 1134,2883 1134,2865 C1134,2847 1148,2833 1166,2833 C1184,2833 1198,2847 1198,2865 C1198,2883 1184,2897 1166,2897 Z" id="Shape" fill-rule="nonzero"></path>
                <path d="M1610,1079 C1611,1066 1621,1053 1645,1038 C1670,1021 1695,1006 1720,990 C1774,955 1831,924 1886,886 C2045,776 2233,736 2421,711 C2499,701 2585,705 2649,657 C2699,620 2787,493 2882,438 C2899,428 2976,389 2976,389 C2976,389 2932,509 2922,534 C2898,590 2935,638 2950,691 C2960,726 2878,719 2873,751 C2867,800 3014,817 3097,833 C3221,858 3366,904 3489,863 C3635,816 3739,723 3845,617 C3796,845 3660,977 3654,1005 C3647,1036 3669,1042 3689,1062 C3733,1105 3923,1324 3924,1394 C3869,1386 3803,1338 3755,1310 C3701,1280 3497,1128 3439,1104 C3426,1099 3267,1052 3267,1072 C3264,1104 3277,1110 3273,1124 C3265,1149 3224,1174 3205,1191 C3154,1235 3096,1274 3060,1332 C3009,1414 3007,1502 2993,1593 C2959,1589 2924,1519 2906,1492 C2889,1466 2825,1354 2800,1347 C2777,1340 2707,1379 2681,1387 C2585,1416 2489,1433 2391,1433 C2272,1433 1959,1442 1727,1270 C1702,1250 1640,1177 1640,1177 C1640,1177 1653,1157 1675,1150 C1645,1130 1612,1109 1609,1084 L1609,1078 L1610,1079 Z M1821,1097 C1850,1097 1873,1074 1873,1044 C1873,1015 1850,991 1821,991 C1791,991 1768,1014 1768,1044 C1768,1074 1791,1097 1821,1097 Z" id="Shape" fill-rule="nonzero"></path>
                <path d="M2676,2285 C2780,2285 2942,2347 3020,2437 C3125,2345 3353,2266 3564,2216 C3640,2101 3647,2012 3640,1959 C3638,1945 3643,1931 3654,1921 C3664,1911 3679,1907 3693,1910 C3830,1938 3905,2059 3945,2155 C3947,2155 3949,2155 3950,2155 C4162,2155 4469,2327 4469,2540 C4469,2752 4163,2925 3950,2925 C3943,2925 3935,2925 3927,2924 C3850,2965 3761,2991 3695,2991 C3614,2991 3654,2953 3702,2894 C3463,2848 3151,2756 3022,2643 C2944,2732 2782,2795 2678,2795 C2538,2795 2759,2681 2759,2541 C2759,2400 2537,2287 2678,2287 L2676,2285 Z M4230,2544 C4262,2544 4289,2518 4289,2485 C4289,2453 4263,2426 4230,2426 C4198,2426 4171,2452 4171,2485 C4171,2517 4197,2544 4230,2544 Z" id="Shape" fill-rule="nonzero"></path>
                <path d="M4570,2197 C4610,2197 4643,2230 4643,2270 C4643,2310 4610,2343 4570,2343 C4530,2343 4497,2310 4497,2270 C4497,2230 4530,2197 4570,2197 Z" id="Shape" fill-rule="nonzero"></path>
                <path d="M4413,1968 C4444,1968 4469,1993 4469,2023 C4469,2054 4444,2079 4413,2079 C4382,2079 4358,2054 4358,2023 C4358,1992 4383,1968 4413,1968 Z" id="Shape" fill-rule="nonzero"></path>
                <path d="M4517,1761 C4463,1761 4419,1717 4419,1663 C4419,1609 4463,1565 4517,1565 C4571,1565 4615,1609 4615,1663 C4615,1717 4571,1761 4517,1761 Z" id="Shape" fill-rule="nonzero"></path>
                <path d="M4363,1336 C4332,1336 4307,1311 4307,1280 C4307,1249 4332,1224 4363,1224 C4394,1224 4419,1249 4419,1280 C4419,1311 4394,1336 4363,1336 Z" id="Shape" fill-rule="nonzero"></path>
                <path d="M2190,3386 L2091,3093 C1969,3300 1943,3547 2020,3777 L2119,4070 C2241,3863 2267,3616 2190,3386 Z M2190,2186 L2091,1893 C1969,2100 1943,2347 2020,2577 L2119,2870 C2241,2663 2267,2416 2190,2186 Z M1711,3386 L1612,3093 C1490,3300 1464,3547 1541,3777 L1640,4070 C1762,3863 1788,3616 1711,3386 Z M1670,2441 L1614,2274 C1547,2406 1536,2558 1583,2700 L1639,2867 C1706,2735 1717,2583 1670,2441 Z M1667,1634 L1613,1475 C1549,1602 1539,1748 1585,1884 L1639,2043 C1703,1916 1713,1770 1667,1634 Z M1104,3386 L1005,3093 C883,3300 857,3547 934,3777 L1033,4070 C1155,3863 1181,3616 1104,3386 Z M1060,2457 L1006,2298 C942,2425 932,2571 978,2707 L1032,2866 C1096,2739 1106,2593 1060,2457 Z M852,4133 L951,4133 L842,3809 C797,3676 783,3533 801,3394 C819,3255 869,3120 946,3003 L965,2974 L885,2738 C822,2552 848,2351 957,2187 L965,2175 L841,1809 C796,1676 782,1533 800,1394 C818,1255 868,1120 945,1003 L977,954 C987,938 1006,930 1024,932 C1043,934 1058,947 1064,965 L1195,1354 C1216,1416 1230,1480 1238,1545 C1241,1572 1222,1596 1195,1599 C1168,1602 1144,1583 1141,1556 C1134,1498 1122,1441 1103,1385 L1004,1092 C882,1299 856,1546 933,1776 L1032,2069 C1093,1965 1131,1848 1142,1728 C1145,1701 1169,1681 1195,1684 C1222,1687 1242,1711 1239,1737 C1225,1887 1173,2033 1090,2159 L1071,2188 L1151,2424 C1214,2610 1188,2811 1079,2975 C1079,2975 1079,2975 1079,2975 L1071,2987 L1194,3353 C1239,3486 1253,3629 1235,3768 C1218,3896 1174,4021 1107,4131 L1556,4131 L1447,3807 C1402,3674 1388,3531 1406,3392 C1424,3253 1474,3118 1551,3001 L1551,3001 L1570,2972 L1488,2728 C1424,2537 1450,2331 1561,2162 C1561,2162 1561,2162 1561,2162 L1570,2149 L1490,1913 C1427,1727 1453,1526 1562,1362 L1583,1330 C1593,1314 1612,1306 1630,1308 C1649,1310 1664,1323 1670,1341 C1767,1629 1877,1860 1686,2151 L1678,2163 L1760,2407 C1824,2598 1798,2804 1687,2973 L1678,2986 L1802,3352 C1847,3485 1861,3628 1843,3767 C1826,3895 1782,4020 1715,4130 L2036,4130 L1927,3806 C1882,3673 1868,3530 1886,3391 C1904,3252 1954,3117 2031,3000 L2050,2971 L1926,2605 C1881,2472 1867,2329 1885,2190 C1903,2051 1953,1916 2030,1799 C2114,1681 2137,1745 2157,1784 L2280,2150 C2325,2283 2339,2426 2321,2565 C2303,2704 2253,2839 2176,2956 L2157,2985 L2280,3351 C2325,3484 2339,3627 2321,3766 C2304,3894 2260,4019 2193,4129 C2925,4129 1781,4129 2513,4129 C2540,4129 2562,4151 2562,4178 C2562,4205 2540,4227 2513,4227 L848,4227 C821,4227 799,4205 799,4178 C799,4151 821,4129 848,4129 L852,4133 Z" id="Shape" fill-rule="nonzero"></path>
                <path d="M2607,0 C4047,0 5214,1167 5214,2607 C5214,4047 4047,5214 2607,5214 C1167,5214 0,4047 0,2607 C0,1167 1167,0 2607,0 Z M2607,111 C1228,111 111,1229 111,2607 C111,3986 1229,5103 2607,5103 C3986,5103 5103,3985 5103,2607 C5103,1228 3985,111 2607,111 Z" id="Shape"></path>
                <path d="M2621,4398 L1745,4398 C1720,4398 1699,4420 1699,4446 C1699,4473 1719,4494 1745,4494 L2621,4494 C2646,4494 2667,4472 2667,4446 C2667,4419 2647,4398 2621,4398 Z" id="Shape" fill-rule="nonzero"></path>
                <path d="M1550,4398 L1161,4398 C1136,4398 1115,4420 1115,4446 C1115,4473 1135,4494 1161,4494 L1550,4494 C1575,4494 1596,4472 1596,4446 C1596,4419 1576,4398 1550,4398 Z" id="Shape" fill-rule="nonzero"></path>
                <path d="M2884,4698 L2397,4698 C2372,4698 2351,4720 2351,4746 C2351,4773 2371,4794 2397,4794 L2884,4794 C2909,4794 2930,4772 2930,4746 C2930,4719 2910,4698 2884,4698 Z" id="Shape" fill-rule="nonzero"></path>
                <path d="M2203,4698 L2106,4698 C2081,4698 2060,4720 2060,4746 C2060,4773 2080,4794 2106,4794 L2203,4794 C2228,4794 2249,4772 2249,4746 C2249,4719 2229,4698 2203,4698 Z" id="Shape" fill-rule="nonzero"></path>
            </g>
            <path d="M2971,0 C4612,0 5942,1330 5942,2971 C5942,4612 4612,5942 2971,5942 C1330,5942 0,4612 0,2971 C0,1330 1330,0 2971,0 Z M2971,126 C1400,126 126,1400 126,2971 C126,4542 1400,5816 2971,5816 C4542,5816 5816,4542 5816,2971 C5816,1400 4542,126 2971,126 Z" id="Shape"></path>
        </g>
    </g>
</svg>