<?xml version="1.0" encoding="UTF-8"?>
<svg width="5942px" height="5942px" viewBox="0 0 5942 5942" version="1.1" xmlns="http://www.w3.org/2000/svg" xmlns:xlink="http://www.w3.org/1999/xlink">
    <!-- Generator: Sketch 47 (45396) - http://www.bohemiancoding.com/sketch -->
    <title>day</title>
    <desc>Created with Sketch.</desc>
    <defs></defs>
    <g id="Page-1" stroke="none" stroke-width="1" fill="none" fill-rule="evenodd">
        <g id="day" fill="#00BCD4">
            <g id="_922627680" transform="translate(364.000000, 364.000000)">
                <path d="M3958,4652 C3984,4642 3999,4626 4015,4604 L4057,4551 C4082,4509 4106,4470 4122,4416 C4158,4296 4160,4203 4155,4064 C4152,3987 4102,3763 4117,3712 C4178,3501 4239,3284 4252,3060 C4259,2936 4243,2798 4269,2684 C4301,2546 4399,2139 4341,2010 C4271,2003 4251,2053 4222,2084 L3988,2412 C3855,2425 3787,2447 3694,2508 C3509,2630 3300,2963 3210,3166 C3172,3251 3129,3345 3087,3425 C2884,3814 2925,3761 2684,3717 C2575,3697 2422,3710 2330,3739 C2350,3788 2410,3781 2492,3850 C2777,4089 2334,4202 1991,4091 C1826,4037 1598,3910 1507,3812 C1513,3787 1538,3756 1552,3734 C1596,3669 1641,3576 1645,3491 C1648,3419 1636,3351 1616,3290 C1599,3239 1579,3162 1532,3143 C1490,3364 1448,3389 1316,3479 C1252,3523 1284,3526 1249,3591 C1186,3576 1188,3548 1084,3550 C1018,3551 971,3569 911,3579 C664,3618 677,3572 547,3567 C579,3654 741,3787 848,3832 C1020,3904 1143,3887 1343,3893 C1360,3922 1365,3952 1380,3984 C1417,4066 1461,4151 1517,4219 C1787,4553 2037,4635 2463,4772 C2706,4851 3098,4833 3327,4722 C3383,4695 3443,4664 3488,4632 C3606,4547 3798,4358 3824,4226 C3850,4241 3837,4221 3853,4272 C3904,4432 3941,4395 3957,4652 L3958,4652 Z" id="Shape"></path>
                <g id="Group" transform="translate(437.000000, 520.000000)" fill-rule="nonzero">
                    <path d="M4273,2083 L3436,2083 C3436,2082 3436,2082 3436,2081 L3863,1893 C3899,1877 3916,1833 3901,1795 C3886,1757 3845,1739 3809,1755 L3387,1941 C3331,1816 3259,1702 3172,1600 L3552,1197 L4260,1197 C4290,1197 4316,1177 4326,1147 C4338,1111 4344,1077 4344,1042 C4344,869 4211,728 4048,728 C4018,728 3988,733 3959,743 C3904,683 3829,648 3748,648 C3667,648 3592,683 3537,743 C3508,733 3478,728 3448,728 C3285,728 3152,869 3152,1042 C3152,1077 3158,1111 3170,1147 C3180,1177 3207,1197 3236,1197 L3353,1197 L3073,1495 C3033,1457 2991,1421 2946,1388 C2884,1342 2819,1302 2752,1267 L2927,819 C2942,781 2925,737 2889,721 C2853,705 2812,723 2797,761 L2622,1209 C2501,1163 2373,1137 2243,1130 L2243,719 L2678,719 C2708,719 2734,699 2744,669 C2760,621 2768,576 2768,530 C2768,300 2592,114 2376,114 C2330,114 2284,123 2240,141 C2166,52 2060,0 1947,0 C1834,0 1728,52 1654,141 C1610,123 1565,114 1518,114 C1369,114 1236,201 1169,340 C1130,326 1089,319 1046,319 C933,319 827,371 753,460 C709,442 664,433 617,433 C401,433 225,620 225,849 C225,895 233,940 249,988 C259,1018 286,1038 315,1038 L641,1038 L1171,1600 C1084,1702 1012,1817 956,1941 L534,1755 C498,1739 457,1757 442,1795 C427,1833 444,1877 480,1893 L907,2081 C907,2082 907,2082 907,2083 L70,2083 C31,2083 0,2116 0,2158 C0,2199 32,2233 70,2233 L4273,2233 C4312,2233 4343,2200 4343,2158 C4343,2117 4312,2083 4273,2083 Z M3293,1042 C3293,951 3362,878 3448,878 C3474,878 3499,885 3524,900 C3557,920 3598,909 3618,875 C3647,827 3696,798 3748,798 C3801,798 3850,827 3878,875 C3898,909 3940,920 3972,900 C3996,885 4022,878 4048,878 C4133,878 4203,952 4203,1042 C4203,1044 4203,1045 4203,1047 L3293,1047 C3293,1045 3293,1044 3293,1042 Z M3292,2083 L1051,2083 C1138,1851 1285,1653 1478,1509 C1682,1357 1921,1276 2171,1276 C2421,1276 2660,1356 2864,1509 C3057,1653 3204,1852 3291,2083 L3292,2083 Z M2101,1129 C1971,1136 1843,1163 1722,1208 L1655,1037 L1776,1037 C1806,1037 1832,1017 1842,987 C1858,939 1866,894 1866,848 C1866,803 1859,759 1846,718 L2100,718 L2100,1129 L2101,1129 Z M1517,263 C1559,263 1600,275 1640,299 C1673,319 1714,308 1734,274 C1781,196 1860,149 1946,149 C2032,149 2111,196 2158,274 C2178,308 2219,319 2252,299 C2291,275 2333,263 2375,263 C2514,263 2626,383 2626,530 C2626,543 2625,556 2623,569 L1764,569 C1692,485 1589,432 1474,432 C1428,432 1382,441 1338,459 C1324,442 1308,426 1291,411 C1333,320 1419,262 1516,262 L1517,263 Z M365,849 C365,702 478,582 616,582 C658,582 699,594 739,618 C772,638 813,627 833,593 C880,515 959,468 1045,468 C1131,468 1210,515 1257,593 C1277,627 1318,638 1351,618 C1390,594 1432,582 1474,582 C1613,582 1725,702 1725,849 C1725,862 1724,875 1722,888 L368,888 C366,875 365,862 365,849 Z M1502,1038 L1591,1267 C1524,1301 1458,1341 1396,1388 C1351,1421 1309,1457 1269,1495 L839,1038 L1501,1038 L1502,1038 Z" id="Shape"></path>
                    <path d="M2922,2401 L1571,2401 C1532,2401 1501,2434 1501,2476 C1501,2517 1533,2551 1571,2551 L2922,2551 C2961,2551 2992,2518 2992,2476 C2992,2435 2960,2401 2922,2401 Z" id="Shape"></path>
                    <path d="M1271,2401 L671,2401 C632,2401 601,2434 601,2476 C601,2517 633,2551 671,2551 L1271,2551 C1310,2551 1341,2518 1341,2476 C1341,2435 1310,2401 1271,2401 Z" id="Shape"></path>
                    <path d="M3372,2401 L3222,2401 C3183,2401 3152,2434 3152,2476 C3152,2517 3184,2551 3222,2551 L3372,2551 C3411,2551 3442,2518 3442,2476 C3442,2435 3410,2401 3372,2401 Z" id="Shape"></path>
                    <path d="M2772,2720 L2022,2720 C1983,2720 1952,2753 1952,2795 C1952,2836 1983,2870 2022,2870 L2772,2870 C2811,2870 2842,2837 2842,2795 C2842,2754 2811,2720 2772,2720 Z" id="Shape"></path>
                    <path d="M1721,2720 L1571,2720 C1532,2720 1501,2753 1501,2795 C1501,2836 1533,2870 1571,2870 L1721,2870 C1760,2870 1791,2837 1791,2795 C1791,2754 1759,2720 1721,2720 Z" id="Shape"></path>
                </g>
                <path d="M2607,0 C4047,0 5214,1167 5214,2607 C5214,4047 4047,5214 2607,5214 C1167,5214 0,4047 0,2607 C0,1167 1167,0 2607,0 Z M2607,111 C1228,111 111,1229 111,2607 C111,3986 1229,5103 2607,5103 C3986,5103 5103,3985 5103,2607 C5103,1228 3985,111 2607,111 Z" id="Shape"></path>
            </g>
            <path d="M2971,0 C4612,0 5942,1330 5942,2971 C5942,4612 4612,5942 2971,5942 C1330,5942 0,4612 0,2971 C0,1330 1330,0 2971,0 Z M2971,126 C1400,126 126,1400 126,2971 C126,4542 1400,5816 2971,5816 C4542,5816 5816,4542 5816,2971 C5816,1400 4542,126 2971,126 Z" id="Shape"></path>
        </g>
    </g>
</svg>