<?xml version="1.0" encoding="UTF-8"?>
<svg width="5942px" height="5942px" viewBox="0 0 5942 5942" version="1.1" xmlns="http://www.w3.org/2000/svg" xmlns:xlink="http://www.w3.org/1999/xlink">
    <!-- Generator: Sketch 47 (45396) - http://www.bohemiancoding.com/sketch -->
    <title>diving</title>
    <desc>Created with Sketch.</desc>
    <defs></defs>
    <g id="Page-1" stroke="none" stroke-width="1" fill="none" fill-rule="evenodd">
        <g id="diving" fill="#00BCD4">
            <g id="_922627232" transform="translate(364.000000, 364.000000)">
                <path d="M2712,281 C2712,288 2710,285 2714,295 C2716,299 2718,303 2720,307 L2746,380 C2749,401 2754,459 2741,483 C2729,495 2627,480 2561,486 C2510,491 2465,502 2415,520 C2391,529 2295,585 2269,604 C2167,679 2013,815 1949,932 C1944,941 1946,938 1941,947 C1924,974 1913,994 1903,1025 C1888,1069 1918,1047 1855,1080 C1771,1123 1713,1177 1652,1250 C1640,1264 1628,1281 1616,1296 L1591,1333 C1589,1339 1590,1337 1590,1341 C1603,1340 1603,1336 1619,1328 C1652,1311 1669,1304 1706,1293 C1740,1283 1787,1274 1815,1257 L1825,1252 C1829,1264 1825,1261 1823,1275 C1819,1295 1835,1399 1817,1442 C1823,1441 1820,1448 1836,1430 C1895,1365 1952,1213 1971,1133 C1982,1085 2126,991 2177,964 C2234,934 2340,895 2401,904 C2414,906 2424,910 2438,912 L2633,953 C2694,964 2827,996 2868,1027 C2863,1031 2772,1066 2753,1068 C2737,1069 2726,1065 2716,1068 C2777,1129 2925,1167 3015,1161 C3052,1159 3032,1160 3058,1152 C3063,1158 3071,1187 3078,1201 C3101,1250 3155,1321 3158,1355 C3160,1390 3159,1527 3211,1474 C3235,1450 3262,1396 3273,1364 C3288,1319 3342,1345 3387,1220 C3407,1166 3408,1112 3404,1059 C3403,1047 3398,1019 3395,1006 C3355,841 3209,710 3071,615 C3051,601 2970,547 2959,535 L2908,432 C2871,367 2815,310 2744,283 C2730,278 2726,276 2716,280 L2712,281 Z" id="Shape"></path>
                <path d="M1338,2782 C1310,2639 1258,2550 1252,2445 C1245,2328 1290,2184 1270,2138 C1211,2121 1136,2208 1106,2252 C1047,2342 1096,2336 977,2393 C785,2485 723,2775 713,2979 C703,3199 771,3424 845,3627 C903,3787 931,3726 898,3827 C863,3937 836,4057 861,4183 C871,4232 902,4323 934,4344 C951,4320 945,4234 984,4162 C1022,4092 1041,4050 1123,4036 C1175,4084 1224,4133 1279,4175 C1291,4184 1298,4195 1309,4205 C1340,4232 1397,4267 1409,4277 C1421,4288 1432,4295 1443,4303 L1588,4383 C1618,4394 1642,4399 1668,4408 C1894,4488 2175,4468 2453,4413 C2500,4404 2511,4422 2547,4434 C2715,4492 2847,4510 3027,4502 C3072,4500 3222,4489 3254,4461 C3248,4442 3248,4446 3226,4442 L3119,4423 C2990,4386 2980,4370 2887,4300 C2869,4286 2852,4274 2834,4261 C2798,4234 2797,4249 2771,4235 C2781,4221 2793,4209 2797,4191 C2815,4115 2801,4046 2879,3960 C2896,3941 2934,3910 2939,3888 C2905,3872 2730,3984 2693,4007 C2612,4058 2576,4114 2526,4186 C2484,4246 2494,4261 2433,4265 C2295,4276 2092,4146 1978,4069 C1841,3977 1816,3931 1731,3782 C1664,3666 1655,3661 1585,3559 C1547,3504 1463,3392 1454,3316 C1474,3319 1472,3323 1496,3327 C1559,3337 1574,3323 1638,3322 C1670,3322 1696,3325 1724,3332 C1741,3336 1744,3337 1762,3344 C1776,3350 1782,3353 1798,3347 C1792,3302 1700,3211 1664,3178 C1616,3134 1559,3092 1500,3064 C1479,3054 1459,3046 1437,3034 C1418,3024 1394,3016 1377,3006 L1338,2781 L1338,2782 Z" id="Shape"></path>
                <g id="Group" transform="translate(2365.000000, 2500.000000)" fill-rule="nonzero">
                    <path d="M463,865 L463,865 C471,865 463,865 463,865 Z" id="Shape"></path>
                    <path d="M1044,669 L1178,865 L1257,865 C1391,865 1493,763 1493,629 L1493,590 C1493,441 1368,315 1218,315 L432,315 C283,315 157,441 157,590 L157,629 C157,763 259,865 393,865 L472,865 L613,669 C715,504 935,504 1046,669 L1044,669 Z" id="Shape"></path>
                    <path d="M596,959 L738,762 C785,691 872,691 919,762 L1061,959 C1084,998 1140,1021 1186,1021 L1265,1021 C1485,1021 1658,848 1658,628 L1658,589 C1658,353 1461,157 1226,157 L440,157 C196,157 0,353 0,589 L0,628 C0,848 173,1021 393,1021 L472,1021 C519,1021 574,990 597,959 L596,959 Z M471,943 L392,943 C219,943 78,801 78,628 L78,589 C78,393 235,235 431,235 L1217,235 C1414,235 1571,392 1571,589 L1571,628 C1571,801 1429,943 1257,943 L1178,943 C1162,943 1131,927 1115,911 L974,715 C895,597 746,597 667,715 L525,911 C517,927 486,943 470,943 L471,943 Z" id="Shape"></path>
                    <path d="M1728,0 L1728,1336 C1728,1556 1555,1729 1335,1729 C1115,1729 942,1556 942,1336 L1099,1336 L1099,1100 L549,1100 L549,1336 L706,1336 C706,1682 989,1965 1335,1965 C1681,1965 1964,1682 1964,1336 L1964,0 L1728,0 Z M1885,393 L1806,393 L1806,79 L1885,79 L1885,393 Z" id="Shape"></path>
                </g>
                <path d="M4299,2283 C4339,2283 4372,2316 4372,2356 C4372,2396 4339,2429 4299,2429 C4259,2429 4226,2396 4226,2356 C4226,2316 4259,2283 4299,2283 Z" id="Shape" fill-rule="nonzero"></path>
                <path d="M4106,2108 C4137,2108 4162,2133 4162,2164 C4162,2195 4137,2220 4106,2220 C4075,2220 4050,2195 4050,2164 C4050,2133 4075,2108 4106,2108 Z" id="Shape" fill-rule="nonzero"></path>
                <path d="M4210,1980 C4156,1980 4112,1936 4112,1882 C4112,1828 4156,1784 4210,1784 C4264,1784 4308,1828 4308,1882 C4308,1936 4264,1980 4210,1980 Z" id="Shape" fill-rule="nonzero"></path>
                <path d="M2607,0 C4047,0 5214,1167 5214,2607 C5214,4047 4047,5214 2607,5214 C1167,5214 0,4047 0,2607 C0,1167 1167,0 2607,0 Z M2607,111 C1228,111 111,1229 111,2607 C111,3986 1229,5103 2607,5103 C3986,5103 5103,3985 5103,2607 C5103,1228 3985,111 2607,111 Z" id="Shape"></path>
                <path d="M4700,1591 L3863,1591 L1335,1591 L498,1591 C459,1591 428,1624 428,1666 C428,1707 460,1741 498,1741 L4701,1741 C4740,1741 4771,1708 4771,1666 C4771,1625 4740,1591 4701,1591 L4700,1591 Z" id="Shape" fill-rule="nonzero"></path>
                <path d="M3349,1910 L1998,1910 C1959,1910 1928,1943 1928,1985 C1928,2026 1960,2060 1998,2060 L3349,2060 C3388,2060 3419,2027 3419,1985 C3419,1944 3387,1910 3349,1910 Z" id="Shape" fill-rule="nonzero"></path>
                <path d="M1698,1910 L1098,1910 C1059,1910 1028,1943 1028,1985 C1028,2026 1060,2060 1098,2060 L1698,2060 C1737,2060 1768,2027 1768,1985 C1768,1944 1737,1910 1698,1910 Z" id="Shape" fill-rule="nonzero"></path>
                <path d="M3799,1910 L3649,1910 C3610,1910 3579,1943 3579,1985 C3579,2026 3611,2060 3649,2060 L3799,2060 C3838,2060 3869,2027 3869,1985 C3869,1944 3837,1910 3799,1910 Z" id="Shape" fill-rule="nonzero"></path>
                <path d="M3199,2229 L2449,2229 C2410,2229 2379,2262 2379,2304 C2379,2345 2410,2379 2449,2379 L3199,2379 C3238,2379 3269,2346 3269,2304 C3269,2263 3238,2229 3199,2229 Z" id="Shape" fill-rule="nonzero"></path>
                <path d="M2148,2229 L1998,2229 C1959,2229 1928,2262 1928,2304 C1928,2345 1960,2379 1998,2379 L2148,2379 C2187,2379 2218,2346 2218,2304 C2218,2263 2186,2229 2148,2229 Z" id="Shape" fill-rule="nonzero"></path>
            </g>
            <path d="M2971,0 C4612,0 5942,1330 5942,2971 C5942,4612 4612,5942 2971,5942 C1330,5942 0,4612 0,2971 C0,1330 1330,0 2971,0 Z M2971,126 C1400,126 126,1400 126,2971 C126,4542 1400,5816 2971,5816 C4542,5816 5816,4542 5816,2971 C5816,1400 4542,126 2971,126 Z" id="Shape"></path>
        </g>
    </g>
</svg>