<?xml version="1.0" encoding="UTF-8"?>
<svg width="5942px" height="5942px" viewBox="0 0 5942 5942" version="1.1" xmlns="http://www.w3.org/2000/svg" xmlns:xlink="http://www.w3.org/1999/xlink">
    <!-- Generator: Sketch 47 (45396) - http://www.bohemiancoding.com/sketch -->
    <title>swimming</title>
    <desc>Created with Sketch.</desc>
    <defs></defs>
    <g id="Page-1" stroke="none" stroke-width="1" fill="none" fill-rule="evenodd">
        <g id="swimming" fill="#00BCD4">
            <g id="_922619488" transform="translate(364.000000, 364.000000)">
                <path d="M4848,2220 C4740,2262 4607,2261 4500,2219 L4291,2136 C4099,2060 3859,2059 3666,2134 L3442,2221 C3334,2263 3201,2262 3094,2220 L2885,2137 C2789,2099 2680,2079 2572,2079 C2464,2079 2356,2097 2260,2135 L2036,2222 C1928,2264 1795,2263 1688,2221 L1479,2138 C1287,2062 1047,2061 854,2136 L630,2223 C522,2265 389,2264 282,2222 L242,2206 C222,2283 215,2359 218,2433 C395,2483 598,2475 767,2410 L991,2323 C1099,2281 1232,2282 1340,2324 L1549,2407 C1646,2446 1755,2465 1864,2465 C1971,2465 2078,2446 2174,2409 L2398,2322 C2452,2301 2513,2291 2573,2291 C2633,2291 2693,2302 2746,2323 L2955,2406 C3147,2482 3387,2483 3580,2408 L3804,2321 C3912,2279 4045,2280 4153,2322 L4362,2405 C4554,2481 4794,2482 4987,2407 L5004,2400 C5003,2323 4994,2247 4975,2172 L4850,2220 L4848,2220 Z" id="Shape" fill-rule="nonzero"></path>
                <path d="M4848,2764 C4740,2806 4607,2805 4500,2763 L4291,2680 C4099,2604 3859,2603 3666,2678 L3442,2765 C3334,2807 3201,2806 3094,2764 L2885,2681 C2789,2643 2680,2623 2572,2623 C2464,2623 2356,2641 2260,2679 L2036,2766 C1928,2808 1795,2807 1688,2765 L1479,2682 C1287,2606 1047,2605 854,2680 L630,2767 C522,2809 389,2808 282,2766 L221,2742 C219,2805 224,2890 250,2986 C419,3026 609,3016 767,2954 L991,2867 C1099,2825 1232,2826 1340,2868 L1549,2951 C1741,3027 1981,3028 2174,2953 L2398,2866 C2452,2845 2513,2835 2573,2835 C2633,2835 2693,2846 2746,2867 L2955,2950 C3052,2989 3161,3008 3270,3008 C3377,3008 3484,2989 3580,2952 L3804,2865 C3912,2823 4045,2824 4153,2866 L4362,2949 C4554,3025 4794,3026 4987,2951 C5003,2875 5012,2793 5007,2704 L4850,2765 L4848,2764 Z" id="Shape" fill-rule="nonzero"></path>
                <path d="M2056,1148 C2056,1279 1950,1385 1819,1385 C1688,1385 1582,1279 1582,1148 C1582,1017 1688,911 1819,911 C1950,911 2056,1017 2056,1148 Z" id="Shape" fill-rule="nonzero"></path>
                <path d="M1648,1729 L1717,2011 C1933,2072 1972,2189 2081,2176 C2136,2157 2245,2078 2346,2029 L2226,1541 L2693,907 C2731,856 2720,784 2669,747 C2618,709 2546,720 2509,771 L2037,1412 C2030,1413 1749,1482 1733,1488 L1154,899 C1110,854 1037,853 992,898 C947,942 946,1015 991,1060 L1648,1729 Z" id="Shape" fill-rule="nonzero"></path>
                <path d="M3898,861 C3898,1084 3717,1266 3493,1266 C3270,1266 3088,1085 3088,861 C3088,638 3269,456 3493,456 C3716,456 3898,637 3898,861 Z" id="Shape" fill-rule="nonzero"></path>
                <path d="M2607,0 C4047,0 5214,1167 5214,2607 C5214,4047 4047,5214 2607,5214 C1167,5214 0,4047 0,2607 C0,1167 1167,0 2607,0 Z M2607,111 C1228,111 111,1229 111,2607 C111,3986 1229,5103 2607,5103 C3986,5103 5103,3985 5103,2607 C5103,1228 3985,111 2607,111 Z" id="Shape"></path>
                <path d="M3811,3853 C3848,3836 3860,3825 3905,3813 C3993,3789 4140,3769 4204,3747 C4351,3698 4292,3708 4390,3667 C4417,3656 4454,3627 4477,3605 C4521,3562 4510,3573 4565,3561 L4766,3517 C4901,3480 4813,3417 4716,3382 L4468,3314 C4420,3289 4427,3246 4257,3178 C3964,3062 3613,3091 3357,3125 C3111,3158 3101,3234 2936,3139 C2882,3108 2535,2895 2469,2960 C2482,2990 2550,3044 2577,3092 C2598,3128 2635,3196 2609,3259 C2561,3329 2221,3267 2081,3288 C1981,3303 1802,3340 1713,3381 C1699,3387 1697,3391 1682,3396 C1570,3439 1638,3414 1537,3490 C1435,3566 1490,3583 1334,3645 C1293,3661 1255,3671 1212,3686 L1097,3731 C1036,3764 949,3825 891,3883 C911,3881 897,3885 917,3876 C1036,3825 1046,3832 1164,3802 C1194,3794 1230,3780 1255,3778 C1239,3808 1078,3955 1054,3974 L809,4133 C842,4133 963,4095 996,4078 C1112,4021 1159,4004 1278,3934 C1379,3875 1496,3760 1537,3747 C1731,3684 1658,3759 1859,3756 C2027,3754 2421,3896 2612,3935 C2741,3962 2847,3981 2974,3993 C3034,3999 3124,3993 3179,3972 C3196,3966 3202,3967 3217,3961 C3244,3950 3250,3928 3281,3919 C3286,4023 3139,4124 3108,4155 C3241,4199 3494,4078 3600,3995 C3616,3982 3637,3955 3654,3944 C3680,3978 3646,4096 3635,4136 C3726,4129 3776,3932 3810,3851 L3811,3853 Z" id="Shape"></path>
            </g>
            <path d="M2971,0 C4612,0 5942,1330 5942,2971 C5942,4612 4612,5942 2971,5942 C1330,5942 0,4612 0,2971 C0,1330 1330,0 2971,0 Z M2971,126 C1400,126 126,1400 126,2971 C126,4542 1400,5816 2971,5816 C4542,5816 5816,4542 5816,2971 C5816,1400 4542,126 2971,126 Z" id="Shape"></path>
        </g>
    </g>
</svg>