<?xml version="1.0" encoding="UTF-8"?>
<svg width="151px" height="109px" viewBox="0 0 151 109" version="1.1" xmlns="http://www.w3.org/2000/svg" xmlns:xlink="http://www.w3.org/1999/xlink">
    <!-- Generator: Sketch 47 (45396) - http://www.bohemiancoding.com/sketch -->
    <title>top-logo-hotel</title>
    <desc>Created with Sketch.</desc>
    <defs></defs>
    <g id="Page-1" stroke="none" stroke-width="1" fill="none" fill-rule="evenodd">
        <g id="top-logo-hotel" fill-rule="nonzero" fill="#FFFFFF">
            <path d="M101.1,56.9 L101.1,85.4 L89.8,88 L89.8,80.6 L86.5,85.1 L82.1,81.1 C82.1,81.1 82.1,88.1 82.2,89.5 C75.5,91.5 72.2,91.7 72.2,91.7 C72.2,91.7 72.5,77.5 72.5,72.6 C72.5,67.7 69,66.1 67.2,63.7 C74.8,62.5 75.5,62.6 82.2,61.5 C82.2,61.5 82.1,67.2 82.1,72.1 C82.1,74.5 84.2,79.5 86.1,79.3 C87.9,79.1 89.8,73.5 89.8,71.3 C89.8,66.9 89.7,60 89.7,60 L101.1,56.9 Z" id="Shape"></path>
            <path d="M45,58 L45,89.2 L32.8,92 C32.8,92 34.2,88.2 31,83.3 C27.8,78.4 24,78.5 24,78.5 C24,78.5 22.9,86.5 24,94.5 C16.3,96.8 9.8,97.8 9.8,97.8 C9.8,97.8 18.8,80.8 8.5,67.3 C16.4,66 24.1,64.7 24.1,64.7 C24.1,64.7 23.9,76 33.6,78.1 C33.6,71.5 32.7,61.5 32.7,61.5 L45,58 Z" id="Shape"></path>
            <path d="M68.2,67.9 L68.2,82.4 C68.2,82.4 64.9,76.1 61,76.1 C57.1,76.1 56.6,79 56.6,80.7 C56.6,86 62.9,82.1 62.9,82.1 L62.9,90.4 C62.9,90.4 56.9,84.8 56.7,89.5 C56.6,94.2 59.1,94.5 62.1,94.5 C65.1,94.5 68.3,91.2 68.3,91.2 L68.3,102.4 C68.3,102.4 47.4,108.3 47.4,82.8 C47.4,75.5 49.4,70.5 56.3,69.8 C63.2,69.1 63.3,72.5 68.2,67.9 Z" id="Shape"></path>
            <path d="M110.2,60.9 C110.2,60.9 120.3,45.1 144.1,53.9 C141.4,57.2 137.4,60.8 137.4,60.8 C137.4,60.8 126,53.3 110.2,60.9 Z" id="Shape"></path>
            <path d="M108.6,57.8 C108.6,57.8 110.7,48.6 113.2,46.2 C116.2,47.5 118.4,48.2 118.4,48.2 C118.4,48.2 110.7,54.2 108.6,57.8 Z" id="Shape"></path>
            <path d="M120.6,60.5 C111.1,60.5 103.4,68 103.4,77.3 C103.4,86.6 111.1,94.1 120.6,94.1 C130.1,94.1 137.8,86.6 137.8,77.3 C137.8,68 130.1,60.5 120.6,60.5 Z M115.7,80.5 L118.1,66 C118.1,66 121.1,66 124.5,67.9 C127.9,69.8 129.5,72.2 129.5,72.2 L115.7,80.5 Z" id="Shape"></path>
            <path d="M150.1,52.9 C149.6,51.2 148.3,49.8 146.7,49.1 C141.3,47.1 136.1,46.1 131.2,46.1 C128.9,46.1 126.6,46.3 124.4,46.8 C123.8,45.2 122.5,43.9 120.9,43.4 C120.4,43.2 118.6,42.6 116.2,41.6 C115.5,41.3 114.8,41.1 114,41.1 C112.5,41.1 111.1,41.7 110,42.7 C107.8,44.9 106.2,49.2 105.1,52.6 C104.2,52 103.1,51.7 102,51.7 C101.5,51.7 100.9,51.8 100.4,51.9 L89.1,55.2 C87.9,55.5 86.9,56.3 86.2,57.2 C85.3,56.7 84.3,56.4 83.3,56.4 C83,56.4 82.7,56.4 82.4,56.5 C79.1,57 77.3,57.3 75.5,57.5 L75.4,57.5 C73.4,57.8 71.3,58.1 67.6,58.7 C65.7,59 64,60.3 63.3,62.2 C63,63 62.9,63.9 62.9,64.7 C62.1,64.6 60.9,64.4 59.6,64.4 C58.8,64.4 58,64.4 57.1,64.5 C55.3,64.7 53.6,65.1 52.1,65.8 L52.1,58.3 C52.1,56.6 51.3,54.9 49.9,53.8 C48.9,53.1 47.7,52.7 46.5,52.7 C46,52.7 45.5,52.8 45,52.9 L32.8,56.4 C30.9,57 29.4,58.5 28.9,60.4 C28,59.8 26.9,59.5 25.8,59.5 C25.5,59.5 25.2,59.5 24.9,59.6 L9.4,62.2 C7.5,62.5 5.8,63.8 5.1,65.7 C4.4,67.5 4.7,69.6 5.9,71.2 C13.7,81.4 6.7,95.3 6.7,95.4 C5.7,97.3 5.9,99.5 7.1,101.2 C8.2,102.7 9.9,103.5 11.6,103.5 C11.9,103.5 12.2,103.5 12.5,103.4 C13.2,103.3 19.6,102.2 27.3,100 C29.1,99.5 30.5,98.1 31,96.4 C32,97.2 33.3,97.7 34.5,97.7 C34.9,97.7 35.3,97.7 35.7,97.6 L45.3,95.4 C46.6,98.8 48.4,101.6 50.9,103.8 C54.5,107 59.3,108.7 64.8,108.7 C66.3,108.7 67.8,108.6 69.2,108.3 L70.5,108 C74.9,107 75.2,103.5 75.2,102.5 L75.2,97.4 C76.9,97.2 80.2,96.6 85,95.2 C86.2,94.8 87.3,94 88,93 C88.9,93.5 89.9,93.8 90.9,93.8 C91.3,93.8 91.8,93.7 92.2,93.6 L103.4,90.9 C107.7,96.5 114.4,99.8 121.5,99.8 C134,99.8 144.1,89.8 144.1,77.5 C144.1,73.4 143,69.5 140.8,66 C141.2,65.8 141.5,65.6 141.8,65.3 C141.8,65.3 146.1,61.5 149.1,57.8 C150.2,56.5 150.6,54.6 150.1,52.9 Z M148.4,57.3 C145.5,60.9 141.4,64.6 141.2,64.7 C140.7,65.1 140.1,65.5 139.5,65.7 C141.8,69.1 143.2,73.2 143.2,77.6 C143.2,89.4 133.4,99 121.4,99 C114.1,99 107.6,95.4 103.7,90 C103.5,90.1 103.4,90.1 103.2,90.1 L92,92.8 C90.6,93.1 89.1,92.8 88,91.9 C87.9,91.8 87.8,91.7 87.7,91.6 C87.2,92.9 86.1,93.9 84.7,94.3 C79.1,96 75.6,96.4 74.3,96.6 L74.3,102.5 C74.3,103.4 74,106.3 70.3,107.2 L69,107.5 C67.6,107.7 66.2,107.9 64.7,107.9 C59.4,107.9 54.8,106.3 51.3,103.2 C48.8,101 46.9,98 45.7,94.5 L35.4,96.9 C33.7,97.3 32,96.7 30.9,95.4 C30.6,95.1 30.4,94.8 30.3,94.5 C30.3,94.6 30.3,94.8 30.3,94.9 C30.3,97 28.9,98.8 26.9,99.4 C19,101.7 12.5,102.8 12.2,102.8 C10.4,103.1 8.7,102.3 7.6,100.9 C6.6,99.5 6.4,97.5 7.3,96 C7.4,95.9 14.7,81.5 6.5,70.8 C5.5,69.5 5.3,67.7 5.9,66.2 C6.5,64.7 7.9,63.6 9.5,63.3 L25,60.5 C26.4,60.3 27.8,60.7 28.8,61.6 C29.1,61.9 29.3,62.1 29.6,62.5 C29.6,62.4 29.6,62.4 29.6,62.4 C29.6,62.3 29.6,62.1 29.6,62 C29.6,59.9 31,58.1 33,57.5 L45.2,54 C46.6,53.6 48.2,53.9 49.3,54.8 C50.5,55.7 51.2,57.1 51.2,58.6 L51.2,67.5 C52.8,66.6 54.7,65.9 57.2,65.6 C60.5,65.3 62.6,65.7 64,66 C63.6,64.9 63.6,63.8 64.1,62.7 C64.7,61.2 66.1,60.1 67.7,59.8 C71.5,59.2 73.6,58.9 75.6,58.6 C77.5,58.3 79.3,58.1 82.5,57.6 C83.9,57.4 85.3,57.8 86.4,58.7 C86.4,58.7 86.5,58.8 86.5,58.8 C87.1,57.6 88.1,56.7 89.4,56.3 L100.7,53 C102.1,52.6 103.7,52.9 104.8,53.8 C105.1,54 105.3,54.2 105.5,54.5 C106.5,50.9 108.2,46 110.5,43.7 C111.9,42.3 113.9,41.9 115.7,42.7 C118.4,43.9 120.4,44.5 120.5,44.6 C122.1,45.1 123.3,46.5 123.6,48.2 C129.3,46.9 136.8,46.8 146.2,50.3 C147.6,50.8 148.7,52 149.1,53.5 C149.7,54.6 149.4,56.2 148.4,57.3 Z" id="Shape"></path>
            <path d="M82.6,33.1 C94.4,34.9 95.4,30.4 95.4,30.4 L88.7,28.8 C88.7,28.8 87.1,30.9 82.6,33.1 Z" id="Shape"></path>
            <path d="M106.5,38.1 C105.8,37.7 105.1,37.5 104.6,37.3 C103.7,37 103.5,36.9 103.4,36.4 C103.4,36.2 103.5,35.8 103.7,35.4 C104.2,33.9 105.1,31.4 103.1,27.2 C100.5,21.8 98.8,21.1 96,19.8 C95.8,19.7 95.6,19.6 95.4,19.5 C94,18.9 92.7,18.4 91.3,17.9 C88.4,16.8 85.7,15.8 85,14.3 C84.5,13.2 84.3,12.1 84.1,11 C83.8,9.6 83.6,8.3 82.8,7.3 C82.6,7 82.4,6.6 82.1,6.2 C81,4.3 79.4,1.5 74.5,0.3 L73,0 L73.3,1.4 C73.7,3.1 74.5,6.6 73.3,7.9 C73.1,8.1 72.4,8.4 68.7,8.4 C67.6,8.4 66.4,8.4 65.1,8.3 C63.8,8.3 62.5,8.2 61.3,8.2 C59.4,8.2 58,8.3 57,8.4 C52.3,9.1 41.9,12.3 37.1,15.4 C34,17.4 26.5,22.4 23.1,26.8 C21.9,28.3 20.9,30.2 19.8,32.1 C18.2,34.9 16.6,37.8 14.7,39.3 C13.2,40.5 10.6,41.3 8.3,41.3 C7.1,41.3 4.3,41.1 3.6,39.1 L2.9,37.2 L2,39.1 L1.9,39.4 C1.1,41 -0.4,44 2.6,47.1 C4.2,48.7 6.9,50.5 9.9,50.5 C11.9,50.5 13.7,49.7 15.2,48.1 C15,50.6 15.6,53.8 18.8,56.2 C20.8,57.7 22.8,58.4 24.8,58.4 C27.5,58.4 29.1,57 29.2,57 L30.4,56 L29,55.5 C28.8,55.4 23.8,53.7 23.3,46.7 C22.8,39.4 31.3,35.4 33.6,35 C33.9,35 34.2,34.9 34.5,34.8 C35.8,34.5 37.4,34.2 39.4,34.2 C42.7,34.2 46.2,35 50.3,36.7 C52.1,37.4 53.8,38.2 55.7,39.1 C53.8,41.1 52.4,43.4 51.5,45.9 L51,47.2 L52.4,47.1 C54.8,46.9 59.2,45.9 65.5,44.2 C67.9,45.4 70.8,46.8 74.1,48.1 C77.4,49.4 80.2,50 82.9,50 C84.2,50 85.3,49.9 86.2,49.7 C87,49.6 87.6,49.5 88.3,49.5 C88.4,49.5 88.6,49.5 88.8,49.5 C89.7,49.6 90.8,49.7 92,49.8 C94.1,50 96.4,50.3 98.5,50.3 C99.5,50.3 100.4,50.2 101.1,50.1 C105.2,49.4 105.7,46.8 105.7,46.7 L105.9,45.9 L105.1,45.7 C100.8,44.7 97.2,42.5 94.8,40.3 C96,40.5 96.5,40.8 97.3,41.2 C97.7,41.4 98.2,41.7 98.8,42 C100.6,42.8 101.9,43.1 103.2,43.1 C103.9,43.1 104.7,43 105.5,42.8 C107.1,42.4 108.1,41.5 108.2,40.4 C108.1,39.9 108,38.9 106.5,38.1 Z M105.1,41.7 C103,42.3 101.5,42 99,40.9 C96.6,39.8 96.6,39.1 92.4,38.9 C92.4,38.9 88.2,38.5 83.6,39.1 C79,39.7 76.3,39.9 70.1,41.7 C63.9,43.5 56,45.6 52.4,46 C55.7,37.1 64.5,33.6 67.6,32.4 C49.3,23.8 37.9,27.6 30.9,28.7 C37.5,24.6 49.4,20.7 57.8,23.4 C66.2,26 72.1,29.3 77.1,29.4 C82.1,29.4 85.8,27.1 85.8,27.1 C85.8,27.1 75,23.4 71.6,22.1 C68.2,20.8 59.7,18.8 55.3,18.5 C50.9,18.3 44.9,19.4 39,21.6 C33.1,23.8 27.3,28.2 24.2,33 C21.1,37.8 18.7,41.9 15.2,46.7 C11.7,51.5 6.2,49.3 3.4,46.4 C0.6,43.5 2.2,40.8 2.9,39.4 C4.4,43.3 12.1,42.7 15.4,40 C18.7,37.3 21.1,31.1 24,27.3 C26.9,23.5 33.3,18.9 37.7,16.1 C42.2,13.2 52.3,10 57.2,9.3 C62,8.5 72.6,9.9 74,8.3 C75.4,6.7 74.7,3.3 74.1,1 C79.8,2.5 80.7,6.2 81.9,7.8 C83.1,9.4 82.8,12.1 84,14.6 C85.2,17.1 90.2,18.1 94.8,20.2 C97.9,21.6 99.4,22 102.1,27.4 C104.8,32.9 102.1,35 102.4,36.4 C102.8,37.8 104,37.5 105.9,38.6 C108,39.7 107.2,41.2 105.1,41.7 Z" id="Shape"></path>
        </g>
    </g>
</svg>