<?xml version="1.0" encoding="UTF-8"?>
<svg width="5942px" height="5942px" viewBox="0 0 5942 5942" version="1.1" xmlns="http://www.w3.org/2000/svg" xmlns:xlink="http://www.w3.org/1999/xlink">
    <!-- Generator: Sketch 47 (45396) - http://www.bohemiancoding.com/sketch -->
    <title>night</title>
    <desc>Created with Sketch.</desc>
    <defs></defs>
    <g id="Page-1" stroke="none" stroke-width="1" fill="none" fill-rule="evenodd">
        <g id="night" fill="#00BCD4">
            <g id="_806152656" transform="translate(364.000000, 365.000000)">
                <path d="M2470,4510 C2738,4567 2935,4595 3220,4498 C3405,4435 3606,4274 3740,4134 C3837,4033 3927,3864 3997,3870 L4124,3909 C4140,3917 4142,3920 4160,3926 C4180,3933 4612,3987 4782,3727 C4718,3746 4618,3716 4572,3700 C4416,3646 4410,3716 4277,3629 C4254,3614 4212,3593 4185,3592 C4164,3591 4154,3597 4132,3590 C4140,3561 4148,3562 4145,3525 C4140,3467 4087,3355 4067,3297 C3992,3077 4043,3087 4035,3022 C4022,3030 4028,3027 4019,3034 C3975,3068 3957,3090 3927,3136 C3898,3180 3880,3228 3868,3272 C3796,3549 3886,3658 3820,3726 C3704,3846 3479,3911 3320,3923 C3074,3942 2938,3870 2753,3753 C2607,3661 2432,3538 2246,3533 L2216,3516 C2235,3497 2208,3522 2225,3508 C2333,3422 2343,3333 2428,3195 C2447,3165 2498,3116 2506,3088 C2423,3087 2218,3161 2131,3205 L1969,3311 C1782,3461 1878,3429 1744,3427 C1660,3426 1589,3433 1504,3439 C1276,3453 1021,3511 806,3597 C732,3626 508,3615 472,3701 C487,3784 580,3791 623,3816 C673,3845 760,3850 790,3877 C898,3972 978,4031 1089,4092 C1208,4158 1407,4245 1539,4283 C1556,4288 1565,4290 1582,4295 L1753,4341 C1759,4346 1876,4651 2117,4826 C2147,4848 2156,4859 2188,4876 C2206,4885 2214,4888 2229,4895 C2249,4904 2244,4908 2266,4899 C2208,4765 2201,4661 2168,4528 C2161,4500 2125,4431 2127,4415 L2468,4509 L2470,4510 Z" id="Shape"></path>
                <path d="M2607,0 C4047,0 5214,1167 5214,2607 C5214,4047 4047,5214 2607,5214 C1167,5214 0,4047 0,2607 C0,1167 1167,0 2607,0 Z M2607,111 C1228,111 111,1229 111,2607 C111,3986 1229,5103 2607,5103 C3986,5103 5103,3985 5103,2607 C5103,1228 3985,111 2607,111 Z" id="Shape"></path>
                <path d="M3633,2290 C3404,2545 3114,2669 2775,2673 C2113,2680 1574,2136 1583,1474 C1592,821 2134,294 2783,308 C2808,308 2834,306 2856,323 C2348,467 2039,883 2055,1401 C2071,1906 2488,2347 2989,2397 C3214,2419 3423,2376 3622,2275 C3626,2280 3629,2286 3633,2291 L3633,2290 Z" id="Shape" fill-rule="nonzero"></path>
                <path d="M3676,1902 C3577,1834 3483,1809 3383,1903 C3408,1788 3408,1688 3283,1625 C3413,1619 3497,1571 3517,1431 C3602,1584 3602,1584 3763,1622 C3668,1695 3617,1780 3676,1902 Z" id="Shape" fill-rule="nonzero"></path>
                <path d="M3644,1123 C3543,1048 3451,1017 3352,1118 C3378,999 3373,902 3252,837 C3377,833 3461,785 3487,650 C3523,713 3540,766 3576,800 C3612,834 3675,808 3725,838 C3689,877 3638,910 3623,955 C3609,998 3633,1053 3643,1123 L3644,1123 Z" id="Shape" fill-rule="nonzero"></path>
                <path d="M2744,1384 C2775,1296 2754,1238 2667,1187 C2758,1175 2829,1161 2845,1063 C2877,1145 2926,1188 3015,1185 C2951,1238 2918,1295 2957,1379 C2883,1342 2815,1316 2744,1384 Z" id="Shape" fill-rule="nonzero"></path>
                <path d="M4769,2600 L3932,2600 L1404,2600 L567,2600 C528,2600 497,2633 497,2675 C497,2716 529,2750 567,2750 L4770,2750 C4809,2750 4840,2717 4840,2675 C4840,2634 4809,2600 4770,2600 L4769,2600 Z" id="Shape" fill-rule="nonzero"></path>
                <path d="M3418,2919 L2067,2919 C2028,2919 1997,2952 1997,2994 C1997,3035 2029,3069 2067,3069 L3418,3069 C3457,3069 3488,3036 3488,2994 C3488,2953 3456,2919 3418,2919 Z" id="Shape" fill-rule="nonzero"></path>
                <path d="M1767,2919 L1167,2919 C1128,2919 1097,2952 1097,2994 C1097,3035 1129,3069 1167,3069 L1767,3069 C1806,3069 1837,3036 1837,2994 C1837,2953 1806,2919 1767,2919 Z" id="Shape" fill-rule="nonzero"></path>
                <path d="M3869,2919 L3719,2919 C3680,2919 3649,2952 3649,2994 C3649,3035 3681,3069 3719,3069 L3869,3069 C3908,3069 3939,3036 3939,2994 C3939,2953 3907,2919 3869,2919 Z" id="Shape" fill-rule="nonzero"></path>
                <path d="M3268,3238 L2518,3238 C2479,3238 2448,3271 2448,3313 C2448,3354 2479,3388 2518,3388 L3268,3388 C3307,3388 3338,3355 3338,3313 C3338,3272 3307,3238 3268,3238 Z" id="Shape" fill-rule="nonzero"></path>
                <path d="M1064,1859 C1056,1706 989,1629 824,1606 C956,1531 1055,1466 1018,1306 C1118,1410 1220,1446 1353,1387 C1289,1508 1274,1615 1385,1719 C1248,1708 1129,1711 1063,1860 L1064,1859 Z" id="Shape" fill-rule="nonzero"></path>
                <path d="M4486,2078 C4433,2042 4383,2028 4329,2079 C4342,2017 4342,1964 4276,1930 C4346,1927 4391,1901 4402,1826 C4448,1908 4448,1908 4534,1928 C4483,1967 4456,2013 4487,2078 L4486,2078 Z" id="Shape" fill-rule="nonzero"></path>
                <path d="M708,2350 C655,2314 605,2300 551,2351 C564,2289 564,2236 498,2202 C568,2199 613,2173 624,2098 C670,2180 670,2180 756,2200 C705,2239 678,2285 709,2350 L708,2350 Z" id="Shape" fill-rule="nonzero"></path>
            </g>
            <path d="M2971,0 C4612,0 5942,1330 5942,2971 C5942,4612 4612,5942 2971,5942 C1330,5942 0,4612 0,2971 C0,1330 1330,0 2971,0 Z M2971,126 C1400,126 126,1400 126,2971 C126,4542 1400,5816 2971,5816 C4542,5816 5816,4542 5816,2971 C5816,1400 4542,126 2971,126 Z" id="Shape"></path>
        </g>
    </g>
</svg>