<?xml version="1.0" encoding="UTF-8"?>
<svg width="5942px" height="5942px" viewBox="0 0 5942 5942" version="1.1" xmlns="http://www.w3.org/2000/svg" xmlns:xlink="http://www.w3.org/1999/xlink">
    <!-- Generator: Sketch 47 (45396) - http://www.bohemiancoding.com/sketch -->
    <title>photo</title>
    <desc>Created with Sketch.</desc>
    <defs></defs>
    <g id="Page-1" stroke="none" stroke-width="1" fill="none" fill-rule="evenodd">
        <g id="photo" fill="#00BCD4">
            <g id="icons-images" transform="translate(364.000000, 364.000000)">
                <g id="Group" transform="translate(1571.000000, 3039.000000)">
                    <path d="M1071,459 C809,459 597,671 597,933 C597,1195 809,1407 1071,1407 C1333,1407 1545,1195 1545,933 C1545,671 1333,459 1071,459 Z M1071,1195 C924,1195 805,1076 805,929 C805,782 924,663 1071,663 C1218,663 1337,782 1337,929 C1337,1076 1218,1195 1071,1195 Z" id="Shape"></path>
                    <path d="M1781,132 L1539,132 L1447,32 C1431,15 1400,0 1377,0 L764,0 C741,0 710,14 694,32 L602,132 L425,132 L425,74 C425,58 412,44 395,44 L209,44 C193,44 179,57 179,74 L179,132 L89,132 C40,132 0,172 0,221 L0,1555 C0,1653 80,1733 178,1733 L1957,1733 C2055,1733 2135,1654 2135,1555 L2135,488 C2135,291 1976,132 1779,132 L1781,132 Z M1914,1511 L224,1511 L224,355 L1781,355 C1855,355 1914,415 1914,488 L1914,1511 Z" id="Shape"></path>
                    <path d="M514,550 C514,599 474,638 426,638 C377,638 338,598 338,550 C338,501 378,462 426,462 C475,462 514,502 514,550 Z" id="Shape"></path>
                    <path d="M1203,929 C1203,1002 1144,1062 1070,1062 C997,1062 937,1003 937,929 C937,856 997,796 1070,796 C1143,796 1203,856 1203,929 Z" id="Shape"></path>
                </g>
                <path d="M2941,644 C2928,713 3033,781 3079,839 C3105,871 3111,862 3119,907 C3140,1026 3195,1115 3176,1249 C3160,1267 3131,1282 3110,1295 C3092,1306 3066,1333 3048,1353 C2949,1461 2789,1734 2789,1843 C2845,1843 2863,1759 2984,1704 C3020,1688 3113,1642 3144,1618 C3158,1607 3176,1588 3193,1581 C3228,1618 3228,1859 3228,1927 C3229,2067 3199,2223 3156,2379 L3727,2240 C3788,2128 3846,2016 3871,1923 C3895,1835 3916,1750 3938,1661 C3966,1672 3966,1688 3990,1712 L4330,2079 C4340,1975 4294,1871 4265,1792 C4259,1774 4249,1746 4241,1730 C4229,1705 4220,1687 4210,1667 C4160,1568 4153,1571 4104,1492 C4015,1347 4006,1460 4004,1307 C4001,982 3895,722 3570,610 C3289,514 3248,639 3179,626 C3103,611 2992,589 2937,645 L2941,644 Z" id="Shape"></path>
                <path d="M1887,775 C1885,908 1776,1014 1643,1012 C1510,1010 1404,901 1405,768 C1407,635 1516,529 1649,530 C1782,532 1888,641 1886,774 L1887,775 Z" id="Shape" fill-rule="nonzero"></path>
                <path d="M1730,2256 C1731,2214 1762,2069 1798,1910 C1795,1910 1791,1910 1788,1910 L1786,1910 C1703,1909 1635,1840 1635,1757 C1634,1399 1741,1225 1870,1115 C1847,1097 1823,1081 1798,1065 C1790,1060 1781,1057 1772,1054 C1750,1041 1727,1032 1703,1026 L1642,1086 L1585,1024 C1585,1024 1585,1024 1584,1024 C1553,1031 1523,1043 1496,1061 C1491,1063 1486,1065 1481,1068 C1302,1175 1142,1332 1179,1758 C1183,1806 1223,1843 1271,1843 C1274,1843 1277,1843 1281,1843 C1332,1839 1370,1793 1366,1742 C1354,1601 1365,1502 1392,1429 L1388,1762 C1388,1787 1392,1811 1401,1832 C1400,1837 1400,1842 1400,1847 L1395,2204 L1615,2240 L1618,1976 C1622,1976 1627,1977 1631,1977 C1632,1977 1633,1977 1634,1977 L1630,2268 L1849,2378 C1769,2348 1729,2306 1730,2254 L1730,2256 Z" id="Shape" fill-rule="nonzero"></path>
                <path d="M2432,782 C2430,915 2321,1021 2188,1019 C2055,1017 1949,908 1951,775 C1953,642 2062,536 2195,537 C2328,539 2434,648 2433,781 L2432,782 Z" id="Shape" fill-rule="nonzero"></path>
                <path d="M2348,1080 C2343,1077 2338,1075 2333,1073 C2306,1055 2276,1042 2246,1034 C2246,1034 2246,1034 2245,1034 L2186,1094 L2127,1033 C2094,1041 2061,1055 2032,1075 C2031,1075 2030,1076 2030,1076 C1859,1178 1693,1314 1694,1758 C1694,1809 1735,1851 1786,1851 L1787,1851 C1839,1851 1880,1809 1880,1757 C1880,1600 1902,1496 1936,1423 L1934,1593 C1906,1707 1790,2185 1789,2257 L2037,2374 L2540,2251 C2542,2118 2451,1706 2427,1600 L2429,1420 C2464,1495 2485,1602 2480,1765 C2479,1817 2519,1859 2571,1861 L2572,1861 C2623,1862 2665,1821 2667,1770 C2679,1326 2516,1186 2348,1080 Z" id="Shape" fill-rule="nonzero"></path>
                <path d="M4849,2220 C4741,2262 4608,2261 4501,2219 L4292,2136 C4100,2060 3860,2059 3667,2134 L3443,2221 C3335,2263 3202,2262 3095,2220 L2886,2137 C2790,2099 2681,2079 2573,2079 C2465,2079 2357,2097 2261,2135 L2037,2222 C1929,2264 1796,2263 1689,2221 L1480,2138 C1288,2062 1048,2061 855,2136 L631,2223 C523,2265 390,2264 283,2222 L243,2206 C223,2283 216,2359 219,2433 C396,2483 599,2475 768,2410 L992,2323 C1100,2281 1233,2282 1341,2324 L1550,2407 C1647,2446 1756,2465 1865,2465 C1972,2465 2079,2446 2175,2409 L2399,2322 C2453,2301 2514,2291 2574,2291 C2634,2291 2694,2302 2747,2323 L2956,2406 C3148,2482 3388,2483 3581,2408 L3805,2321 C3913,2279 4046,2280 4154,2322 L4363,2405 C4555,2481 4794,2482 4988,2407 L5005,2400 C5004,2323 4995,2247 4976,2172 L4851,2220 L4849,2220 Z" id="Shape" fill-rule="nonzero"></path>
                <path d="M4849,2764 C4741,2806 4608,2805 4501,2763 L4292,2680 C4100,2604 3860,2603 3667,2678 L3443,2765 C3335,2807 3202,2806 3095,2764 L2886,2681 C2790,2643 2681,2623 2573,2623 C2465,2623 2357,2641 2261,2679 L2037,2766 C1929,2808 1796,2807 1689,2765 L1480,2682 C1288,2606 1048,2605 855,2680 L631,2767 C523,2809 390,2808 283,2766 L222,2742 C220,2805 225,2890 251,2986 C420,3026 610,3016 768,2954 L992,2867 C1100,2825 1233,2826 1341,2868 L1550,2951 C1742,3027 1982,3028 2175,2953 L2399,2866 C2453,2845 2514,2835 2574,2835 C2634,2835 2694,2846 2747,2867 L2956,2950 C3053,2989 3162,3008 3271,3008 C3378,3008 3485,2989 3581,2952 L3805,2865 C3913,2823 4046,2824 4154,2866 L4363,2949 C4555,3025 4794,3026 4988,2951 C5004,2875 5013,2793 5008,2704 L4851,2765 L4849,2764 Z" id="Shape" fill-rule="nonzero"></path>
                <path d="M2607,0 C4047,0 5214,1167 5214,2607 C5214,4047 4047,5214 2607,5214 C1167,5214 0,4047 0,2607 C0,1167 1167,0 2607,0 Z M2607,111 C1228,111 111,1229 111,2607 C111,3986 1229,5103 2607,5103 C3986,5103 5103,3985 5103,2607 C5103,1228 3985,111 2607,111 Z" id="Shape"></path>
            </g>
            <path d="M2971,0 C4612,0 5942,1330 5942,2971 C5942,4612 4612,5942 2971,5942 C1330,5942 0,4612 0,2971 C0,1330 1330,0 2971,0 Z M2971,126 C1400,126 126,1400 126,2971 C126,4542 1400,5816 2971,5816 C4542,5816 5816,4542 5816,2971 C5816,1400 4542,126 2971,126 Z" id="Shape"></path>
        </g>
    </g>
</svg>